<svg width="555" height="150" viewBox="0 0 555 150" fill="none" xmlns="http://www.w3.org/2000/svg">
<path d="M20.6 67.0998C20.6 61.3998 16 56.7998 10.3 56.7998C4.6 56.7998 0 61.4998 0 67.0998V82.7998C0 88.4998 4.6 93.0998 10.3 93.0998C16 93.0998 20.6 88.4998 20.6 82.7998V67.0998Z" fill="#6139EF"/>
<path d="M147.7 84.8996C153.2 84.8996 157.6 80.4996 157.6 74.9996C157.6 69.4996 153.2 65.0996 147.7 65.0996C142.2 65.0996 137.8 69.4996 137.8 74.9996C137.8 80.4996 142.2 84.8996 147.7 84.8996Z" fill="#6139EF"/>
<path d="M89.4999 10.3C89.4999 4.6 84.8999 0 79.1999 0C73.4999 0 68.8999 4.6 68.8999 10.3V139.7C68.8999 145.4 73.4999 150 79.1999 150C84.8999 150 89.4999 145.4 89.4999 139.7V10.3Z" fill="#8FA6FF"/>
<path d="M89.4999 10.3V88.8H68.8999V10.3C68.8999 4.6 73.4999 0 79.1999 0C84.8999 0 84.5999 1.1 86.4999 3C88.3999 4.9 89.4999 7.4 89.4999 10.3Z" fill="#A399FF"/>
<path d="M89.4999 67.0998C89.4999 61.3998 84.8999 56.7998 79.1999 56.7998C73.4999 56.7998 68.8999 61.3998 68.8999 67.0998V82.7998C68.8999 88.4998 73.4999 93.0998 79.1999 93.0998C84.8999 93.0998 89.4999 88.4998 89.4999 82.7998V67.0998Z" fill="#6139EF"/>
<path d="M54.9999 28.0998C54.9999 22.3998 50.3999 17.7998 44.6999 17.7998C38.9999 17.7998 34.3999 22.3998 34.3999 28.0998V115.6C34.3999 121.3 38.9999 125.9 44.6999 125.9C50.3999 125.9 54.9999 121.3 54.9999 115.6V28.0998Z" fill="#8FA6FF"/>
<path d="M54.9999 115.6V62.5996H34.3999V115.6C34.3999 121.3 38.9999 125.9 44.6999 125.9C50.3999 125.9 50.0999 124.7 51.9999 122.9C53.8999 121 54.9999 118.5 54.9999 115.6Z" fill="#A399FF"/>
<path d="M54.9999 54.3996C54.9999 48.6996 50.3999 44.0996 44.6999 44.0996C38.9999 44.0996 34.3999 48.6996 34.3999 54.3996V89.2996C34.3999 94.9996 38.9999 99.5996 44.6999 99.5996C50.3999 99.5996 54.9999 94.9996 54.9999 89.2996V54.3996Z" fill="#6139EF"/>
<path d="M123.9 28.0998C123.9 22.3998 119.3 17.7998 113.6 17.7998C107.9 17.7998 103.3 22.3998 103.3 28.0998V115.6C103.3 121.3 107.9 125.9 113.6 125.9C119.3 125.9 123.9 121.3 123.9 115.6V28.0998Z" fill="#8FA6FF"/>
<path d="M123.9 115.6V62.5996H103.3V115.6C103.3 121.3 107.9 125.9 113.6 125.9C119.3 125.9 119 124.7 120.9 122.9C122.8 121 123.9 118.5 123.9 115.6Z" fill="#A399FF"/>
<path d="M123.9 54.3996C123.9 48.6996 119.3 44.0996 113.6 44.0996C107.9 44.0996 103.3 48.6996 103.3 54.3996V89.2996C103.3 94.9996 107.9 99.5996 113.6 99.5996C119.3 99.5996 123.9 94.9996 123.9 89.2996V54.3996Z" fill="#6139EF"/>
<path d="M261.7 87.9998H261L246.8 33.7998H228.8L214.6 87.7998H213.9L201.5 33.7998H179.5L203.5 116.3H222.6L237.5 66.2998H238.2L253 116.3H272.2L296.2 33.7998H274.2L261.7 87.9998Z" fill="white"/>
<path d="M324.3 33.7998H304.4V116.3H324.3V33.7998Z" fill="white"/>
<path d="M395.1 76.4002C393 74.4002 390.3 72.6002 387.2 71.1002C384.1 69.6002 380.5 68.4002 376.4 67.6002L369.3 66.0002C367.4 65.6002 365.7 65.1002 364.2 64.6002C362.7 64.1002 361.4 63.4002 360.4 62.7002C359.3 62.0002 358.5 61.2002 358 60.2002C357.4 59.3002 357.2 58.2002 357.3 56.9002C357.3 55.4002 357.8 54.1002 358.6 52.9002C359.4 51.7002 360.7 50.8002 362.5 50.1002C364.2 49.4002 366.4 49.1002 368.9 49.1002C372.8 49.1002 375.8 49.9002 377.9 51.6002C380 53.3002 381.2 55.6002 381.5 58.5002H400.6C400.6 53.4002 399.2 48.9002 396.6 45.0002C394 41.1002 390.3 38.1002 385.6 35.9002C380.9 33.7002 375.3 32.7002 368.9 32.7002C362.5 32.7002 357.1 33.8002 352.2 35.9002C347.3 38.0002 343.5 41.0002 340.7 44.9002C337.9 48.7002 336.6 53.2002 336.6 58.3002C336.6 64.6002 338.6 69.5002 342.7 73.2002C346.8 76.9002 352.4 79.5002 359.6 81.2002L368.2 83.2002C371.2 83.9002 373.7 84.7002 375.6 85.5002C377.5 86.3002 379 87.3002 379.9 88.4002C380.8 89.5002 381.3 90.9002 381.4 92.4002C381.4 94.1002 380.8 95.5002 379.8 96.8002C378.8 98.1002 377.3 99.1002 375.4 99.8002C373.5 100.5 371.2 100.9 368.5 100.9C365.8 100.9 363 100.4 360.8 99.5002C358.6 98.6002 356.8 97.2002 355.6 95.5002C354.3 93.7002 353.6 91.5002 353.5 88.9002H334.4C334.4 95.3002 335.9 100.7 338.8 104.9C341.6 109.1 345.6 112.3 350.8 114.3C355.9 116.4 361.9 117.4 368.8 117.4C375.7 117.4 381.5 116.4 386.4 114.4C391.3 112.4 395 109.6 397.6 105.8C400.2 102 401.5 97.6002 401.5 92.4002C401.5 89.1002 400.9 86.1002 399.8 83.5002C398.7 80.8002 397.1 78.5002 394.9 76.5002L395.1 76.4002Z" fill="white"/>
<path d="M461.9 37.3998C457.4 34.9998 452.1 33.7998 445.9 33.7998H411.8V116.3H431.7V90.6998H445.2C451.5 90.6998 457 89.4998 461.6 87.1998C466.2 84.8998 469.7 81.5998 472.2 77.2998C474.7 72.9998 475.9 68.0998 475.9 62.3998C475.9 56.6998 474.7 51.7998 472.2 47.4998C469.8 43.1998 466.3 39.8998 461.8 37.4998L461.9 37.3998ZM453.7 68.9998C452.7 70.8998 451.1 72.3998 449.1 73.3998C447.1 74.3998 444.6 74.9998 441.5 74.9998H431.7V49.8998H441.5C444.5 49.8998 447 50.3998 449 51.3998C451 52.3998 452.6 53.8998 453.6 55.6998C454.6 57.4998 455.2 59.7998 455.2 62.2998C455.2 64.7998 454.7 66.9998 453.6 68.8998L453.7 68.9998Z" fill="white"/>
<path d="M531 116.3H552.7L535.6 84.8998C540.1 82.7998 543.7 79.7998 546.1 75.7998C548.6 71.7998 549.8 66.9998 549.8 61.1998C549.8 55.3998 548.6 50.6998 546.1 46.5998C543.7 42.4998 540.2 39.2998 535.7 37.0998C531.2 34.8998 525.9 33.7998 519.7 33.7998H485.6V116.3H505.5V88.0998H515.7L530.8 116.3H531ZM505.7 49.8998H515.5C518.5 49.8998 521 50.2998 523 51.1998C525 51.9998 526.6 53.2998 527.6 54.9998C528.6 56.6998 529.2 58.7998 529.2 61.2998C529.2 63.7998 528.7 65.8998 527.6 67.5998C526.5 69.2998 525 70.3998 523 71.1998C521 71.9998 518.5 72.3998 515.4 72.3998H505.6V49.8998H505.7Z" fill="white"/>
</svg>
